<?xml version="1.0"?>
<svg version="1.1" xmlns="http://www.w3.org/2000/svg" width="120" height="100" style=""><path fill="#094875" d="M15.4765625,55.90625q0-0.3515625,0.03515625-0.83984375t0.16015625-0.80859375q0.046875-0.109375,0.19921875-0.21484375t0.3203125-0.12890625t0.296875,0.0390625t0.12890625,0.2734375q0,0.3671875-0.015625,0.9296875l0,0.2421875q0,0.4296875,0.0390625,0.8203125q0.0546875,0.515625,0.234375,0.8671875q0.15625,0.3203125,0.4921875,0.3203125l0.0625,0q0.4609375-0.03125,0.6796875-0.3828125t0.296875-0.8359375q0.0703125-0.4453125,0.0703125-0.9375l0-0.09375q-0.0078125-0.546875-0.0078125-0.9609375q0-1.6484375-0.109375-3.3046875t-0.109375-3.3203125q0-0.2734375-0.0234375-0.59375q-0.0078125-0.1171875-0.0078125-0.234375q0-0.1875,0.0234375-0.359375q0.0390625-0.2734375,0.19921875-0.45703125t0.54296875-0.18359375q0.2109375,0,0.38671875,0.05078125t0.31640625,0.20703125q0.1796875,2.03125,0.296875,4.12890625t0.1171875,4.14453125q0,0.703125-0.1171875,1.4140625t-0.4296875,1.28125t-0.8671875,0.9296875t-1.4140625,0.359375q-0.515625,0-0.859375-0.18359375t-0.55078125-0.50390625t-0.296875-0.74609375t-0.08984375-0.91796875z M21.544296875,55.234375q0-0.4453125,0.11328125-0.91796875t0.359375-0.8515625t0.62109375-0.6171875t0.90625-0.23828125q0.3984375,0,0.83984375,0.13671875t0.80859375,0.390625t0.59765625,0.62109375t0.23046875,0.8203125q0,0.546875-0.19921875,1.0390625t-0.55859375,0.87890625t-0.83984375,0.609375t-1.04296875,0.22265625q-0.4609375,0-0.8046875-0.16796875t-0.57421875-0.44921875t-0.34375-0.6640625t-0.11328125-0.8125z M22.692734375,55.21875q0,0.140625,0.04296875,0.4140625t0.12890625,0.53515625t0.22265625,0.453125t0.33203125,0.17578125q0.4140625-0.046875,0.68359375-0.26953125t0.4375-0.54296875t0.234375-0.6953125t0.06640625-0.7109375q0-0.4296875-0.16796875-0.71875t-0.55078125-0.46875q0,0.015625,0.015625,0.015625t0.015625-0.015625l-0.1953125-0.046875q-0.078125-0.03125-0.19140625-0.0703125t-0.22265625-0.171875q-0.3046875,0.109375-0.47265625,0.28125t-0.25390625,0.41796875t-0.10546875,0.58984375t-0.01953125,0.828125z M27.46359375,52.8125q0-0.546875,0.05078125-1.421875t0.12109375-1.8046875t0.17578125-1.76171875t0.23046875-1.27734375q0.046875-0.1953125,0.22265625-0.234375t0.35546875-0.0390625q0.2421875,0,0.41796875,0.0859375t0.17578125,0.375q0,1.421875-0.17578125,2.84765625t-0.19140625,2.84765625q0.2421875-0.3671875,0.625-0.55078125t0.8125-0.18359375q0.59375,0,1.0234375,0.2421875t0.6953125,0.625t0.39453125,0.88671875t0.12890625,1.02734375q0,0.2890625-0.05859375,0.72265625t-0.17578125,0.9140625t-0.296875,0.953125t-0.42578125,0.84765625t-0.56640625,0.60546875t-0.703125,0.23046875q-0.078125,0-0.20703125-0.0234375t-0.2578125-0.0703125t-0.21484375-0.12109375t-0.0859375-0.18359375q0-0.125,0.15234375-0.17578125t0.24609375-0.05078125q0.3515625-0.15625,0.625-0.65234375t0.45703125-1.08984375t0.27734375-1.17578125t0.09375-0.94921875q0-0.2109375-0.0625-0.5625t-0.19140625-0.6953125t-0.3515625-0.59375t-0.52734375-0.25q-0.3671875,0-0.5859375,0.37890625t-0.34375,0.8828125t-0.16796875,1.0390625t-0.04296875,0.83984375q0,0.1953125,0.06640625,0.38671875t0.15234375,0.3828125t0.15234375,0.390625t0.06640625,0.39453125q0,0.09375-0.08203125,0.15625t-0.19140625,0.1015625t-0.23046875,0.05078125t-0.18359375,0.01171875q-0.4453125,0-0.6171875-0.2109375t-0.296875-0.59375q-0.2734375-0.8671875-0.37890625-1.76171875t-0.10546875-1.79296875z M34.125078125,56.515625q0-0.2734375,0.1875-0.34765625t0.40625-0.07421875q0.3828125,0,0.6484375,0.34375t0.50390625,0.75390625t0.47265625,0.75390625t0.5546875,0.34375q0.2421875,0,0.44140625-0.12109375t0.34375-0.3046875t0.22265625-0.4140625t0.078125-0.45703125q0-0.59375-0.23828125-1.2265625t-0.609375-1.3046875t-0.78515625-1.375t-0.78125-1.4296875t-0.609375-1.48046875t-0.2421875-1.51953125q0-1.1484375,0.6875-1.78125t1.8125-0.6328125q0.3828125,0,0.7734375,0.109375t0.71875,0.328125t0.53515625,0.5390625t0.20703125,0.75q0,0.140625-0.20703125,0.18359375t-0.30078125,0.04296875q-0.140625,0-0.3046875-0.03515625t-0.2109375-0.19140625t-0.1328125-0.359375t-0.21484375-0.37890625t-0.3046875-0.3046875t-0.38671875-0.12890625q-0.3515625,0-0.59765625,0.14453125t-0.3984375,0.38671875t-0.2265625,0.54296875t-0.07421875,0.62109375q0,0.75,0.2578125,1.51171875t0.640625,1.515625t0.83203125,1.48828125t0.83203125,1.4296875t0.640625,1.359375t0.2578125,1.2578125q0,0.53125-0.25,0.8984375t-0.6328125,0.59765625t-0.84765625,0.3359375t-0.91015625,0.10546875q-0.4765625,0-0.9765625-0.19140625t-0.8984375-0.52734375t-0.65625-0.78515625t-0.2578125-0.97265625z M41.15375,54.8984375q0-0.71875,0.16796875-1.41015625t0.28515625-1.37890625q0.03125-0.1796875,0.24609375-0.22265625t0.36328125-0.04296875q0.2578125,0,0.4140625,0.078125q0.0625,0.03125,0.1171875,0.0703125t0.0546875,0.1015625q0,0.671875-0.16015625,1.3125t-0.16015625,1.359375q0,0.2421875,0.03515625,0.45703125t0.06640625,0.42578125l0.046875,0.2265625q0,0.0625,0.0078125,0.109375t0.0234375,0.109375q0,0.140625-0.19921875,0.19140625t-0.34765625,0.05078125q-0.2265625,0-0.41796875-0.08984375t-0.30078125-0.30859375l-0.109375-0.2265625q-0.09375-0.1796875-0.09375-0.40234375t-0.0390625-0.41015625z M41.65375,50.1953125l0-0.1484375q0-0.3671875,0.18359375-0.65625t0.55078125-0.2890625q0.046875,0,0.08984375,0.0078125t0.08984375,0.0078125q0.09375,0.015625,0.24609375,0.07421875t0.15234375,0.18359375l0,0.015625q-0.03125,0.0625-0.0390625,0.12890625t-0.0390625,0.11328125l0.015625-0.015625q-0.09375,0.2421875-0.15234375,0.390625t-0.12890625,0.23828125t-0.17578125,0.12890625t-0.30078125,0.0390625q-0.03125,0-0.109375-0.0078125t-0.16796875-0.03125t-0.15234375-0.0625t-0.0625-0.1171875z M44.565234375,52.6875q0-0.15625,0.203125-0.19921875t0.3125-0.04296875q0.6875,0,1.3515625-0.1171875t1.3359375-0.1171875q0.0625,0,0.20703125,0.0078125t0.2734375,0.03125t0.23046875,0.078125t0.1015625,0.1640625q0,0.1953125-0.09375,0.5625t-0.25390625,0.82421875t-0.3515625,0.96875t-0.3828125,0.9765625t-0.359375,0.83984375t-0.26953125,0.5859375q0.2578125,0.046875,0.6328125,0.078125t0.7109375,0.0625t0.5625,0.10546875t0.2109375,0.18359375q-0.03125,0.1796875-0.3203125,0.28125q-0.28125,0.1015625-0.703125,0.140625q-0.2578125,0.0234375-0.546875,0.0234375q-0.171875,0-0.34375-0.0078125q-0.46875-0.0234375-0.87890625-0.078125t-0.68359375-0.15234375t-0.2734375-0.20703125q0-0.046875,0.13671875-0.3828125t0.3359375-0.81640625t0.44140625-1.046875t0.46484375-1.08984375t0.390625-0.9296875t0.23046875-0.5625q-0.4609375,0.03125-0.93359375,0.078125t-0.93359375,0.046875q-0.0625,0-0.19921875-0.0078125t-0.265625-0.0390625t-0.234375-0.08984375t-0.10546875-0.15234375z M50.60171875,52.6875q0-0.15625,0.203125-0.19921875t0.3125-0.04296875q0.6875,0,1.3515625-0.1171875t1.3359375-0.1171875q0.0625,0,0.20703125,0.0078125t0.2734375,0.03125t0.23046875,0.078125t0.1015625,0.1640625q0,0.1953125-0.09375,0.5625t-0.25390625,0.82421875t-0.3515625,0.96875t-0.3828125,0.9765625t-0.359375,0.83984375t-0.26953125,0.5859375q0.2578125,0.046875,0.6328125,0.078125t0.7109375,0.0625t0.5625,0.10546875t0.2109375,0.18359375q-0.03125,0.1796875-0.3203125,0.28125q-0.28125,0.1015625-0.703125,0.140625q-0.2578125,0.0234375-0.546875,0.0234375q-0.171875,0-0.34375-0.0078125q-0.46875-0.0234375-0.87890625-0.078125t-0.68359375-0.15234375t-0.2734375-0.20703125q0-0.046875,0.13671875-0.3828125t0.3359375-0.81640625t0.44140625-1.046875t0.46484375-1.08984375t0.390625-0.9296875t0.23046875-0.5625q-0.4609375,0.03125-0.93359375,0.078125t-0.93359375,0.046875q-0.0625,0-0.19921875-0.0078125t-0.265625-0.0390625t-0.234375-0.08984375t-0.10546875-0.15234375z M56.638203125,57.859375q0-0.2265625,0.01953125-0.4765625t0.03515625-0.46875l0.046875-1.171875q0.078125-1.40625,0.19140625-2.765625t0.19140625-2.75q0.046875-0.765625,0.0703125-1.50390625t0.0703125-1.50390625q-0.03125-0.0625-0.03125-0.0859375q0-0.109375,0.08203125-0.171875t0.19140625-0.10546875t0.23046875-0.05859375t0.18359375-0.015625l0.1796875,0q0.2421875,0.03125,0.3515625,0.15234375t0.140625,0.2890625t0.015625,0.359375t-0.015625,0.35546875q0,1.1328125-0.0546875,2.30859375t-0.125,2.359375t-0.12890625,2.3671875t-0.05859375,2.33984375l0,0.546875q0,0.3671875-0.20703125,0.484375t-0.57421875,0.1171875q-0.3203125,0-0.5625-0.140625t-0.2421875-0.4609375z M60.2215625,55.40625q0-0.546875,0.12109375-1.2890625t0.41015625-1.40625t0.76171875-1.12890625t1.19140625-0.46484375q0.671875,0,1.0078125,0.38671875t0.3359375,1.04296875q0,0.4296875-0.16015625,0.94140625t-0.45703125,0.96875t-0.703125,0.76171875t-0.90625,0.3046875l-0.203125-0.015625q0,0.2109375,0.0625,0.56640625t0.18359375,0.70703125t0.3125,0.6171875t0.46484375,0.265625q0.3984375,0,0.765625-0.3203125t0.6953125-0.7109375t0.609375-0.7109375t0.515625-0.3203125q0.125,0,0.2578125,0.0390625t0.1484375,0.21875q0,0.109375-0.05859375,0.1796875t-0.10546875,0.15625q-0.2421875,0.4140625-0.52734375,0.7890625t-0.64453125,0.6796875t-0.78515625,0.48046875t-0.94140625,0.17578125q-0.671875,0-1.1171875-0.23828125t-0.71875-0.640625t-0.39453125-0.9296875t-0.12109375-1.10546875z M61.62,54.8125l0.21875,0.1953125q0.15625,0.140625,0.3125,0.0625t0.28125-0.28515625t0.23046875-0.51171875t0.1875-0.625t0.12109375-0.625t0.0390625-0.5078125l0-0.265625t-0.0234375-0.28125t-0.08203125-0.22265625t-0.18359375-0.11328125q-0.0390625-0.0078125-0.0703125-0.0078125q-0.265625,0-0.453125,0.3359375q-0.203125,0.375-0.328125,0.91015625t-0.1796875,1.09765625t-0.0703125,0.84375z"/><path fill="#" d=""/></svg>
